<?xml version="1.0" encoding="UTF-8"?>
<svg width="100pt" height="100pt" version="1.1" viewBox="0 0 100 100" xmlns="http://www.w3.org/2000/svg">
 <g>
  <path d="m79.359 30c0-0.375-0.18359-0.6875-0.43359-0.92969-0.003906-0.003906-0.003906-0.011718-0.011719-0.015624l-0.14844-0.15234c-0.019531-0.011719-0.027344-0.03125-0.042969-0.042969l-18.473-18.469c-0.16797-0.16797-0.38281-0.26562-0.60938-0.32422-0.054687-0.015625-0.10156-0.023437-0.15625-0.03125-0.058594-0.007812-0.11328-0.035156-0.17578-0.035156h-37.336c-0.73828 0-1.332 0.59766-1.332 1.332v77.336c0 0.73438 0.59766 1.332 1.332 1.332h56c0.73828 0 1.332-0.59766 1.332-1.332l0.003906-58.41c0.015625-0.085937 0.050781-0.16797 0.050781-0.25781zm-56.051 57.336v-74.668h34.668v17.332c0 0.73828 0.59766 1.332 1.332 1.332h17.332v56z"/>
  <path d="m43.309 47.473c0 2.2109-1.7891 4-4 4-2.2109 0-4-1.7891-4-4 0-2.207 1.7891-4 4-4 1.3281 0 2.5078 0.64844 3.2344 1.6445 0.48047 0.66016 0.76562 1.4727 0.76562 2.3555z"/>
  <path d="m64.641 47.473c0 5.332-8 5.332-8 0 0-5.3359 8-5.3359 8 0"/>
  <path d="m57.977 67.078c-0.73828 0-1.3359-0.59766-1.3359-1.332 0-3.6797-2.9883-6.668-6.6641-6.668-3.6797 0-6.668 2.9883-6.668 6.668 0 0.73438-0.59766 1.332-1.3359 1.332-0.73828 0-1.332-0.59766-1.332-1.332 0-5.1445 4.1875-9.3359 9.3359-9.3359 5.1445 0 9.332 4.1875 9.332 9.3359 0 0.73438-0.59766 1.332-1.332 1.332z"/>
 </g>
</svg>
